# xmcd CD database file
#
# Track frame offsets:
#	150
#	16563
#	34137
#	46996
#	66636
#	82970
#	99505
#	122079
#	140626
#	151432
#
# Disc length: 2264 seconds
#
# Revision: 2
# Processed by: cddbd v1.5.2PL0 Copyright (c) Steve Scherf et al.
# Submitted via: CDex 1.51
#
DISCID=7f08d60a
DTITLE=J. Blues - Red, White and Blues
DYEAR=2002
DGENRE=Blues
TTITLE0=Black Cat
TTITLE1=TV Mama
TTITLE2=Shake Your Money Maker
TTITLE3=Sweet Home Chicago
TTITLE4=Come And Go With Me
TTITLE5=She Caught The Katy
TTITLE6=Gimme Back My Wig
TTITLE7=Pickin' The Blues
TTITLE8=Dust My Broom
TTITLE9=Rock Me
EXTD=YEAR: 2002
EXTT0=
EXTT1=
EXTT2=
EXTT3=
EXTT4=
EXTT5=
EXTT6=
EXTT7=
EXTT8=
EXTT9=
PLAYORDER=
